<mxfile host="app.diagrams.net" agent="Mozilla/5.0 (Windows NT 10.0; Win64; x64) AppleWebKit/537.36 (KHTML, like Gecko) Chrome/136.0.0.0 Safari/537.36" version="24.7.17">
  <diagram id="R2lEEEUBdFMjLlhIrx00" name="Page-1">
    <mxGraphModel dx="2769" dy="1268" grid="0" gridSize="10" guides="1" tooltips="1" connect="1" arrows="1" fold="1" page="0" pageScale="1" pageWidth="850" pageHeight="1100" math="0" shadow="0" extFonts="Permanent Marker^https://fonts.googleapis.com/css?family=Permanent+Marker">
      <root>
        <mxCell id="0" />
        <mxCell id="1" parent="0" />
        <mxCell id="1Atd8kXOPtwalx7o6Kbn-3" value="User" style="shape=umlLifeline;perimeter=lifelinePerimeter;whiteSpace=wrap;html=1;container=1;dropTarget=0;collapsible=0;recursiveResize=0;outlineConnect=0;portConstraint=eastwest;newEdgeStyle={&quot;edgeStyle&quot;:&quot;elbowEdgeStyle&quot;,&quot;elbow&quot;:&quot;vertical&quot;,&quot;curved&quot;:0,&quot;rounded&quot;:0};" vertex="1" parent="1">
          <mxGeometry x="-735" y="-53" width="100" height="500" as="geometry" />
        </mxCell>
        <mxCell id="1Atd8kXOPtwalx7o6Kbn-4" value="Raspberry Pi" style="shape=umlLifeline;perimeter=lifelinePerimeter;whiteSpace=wrap;html=1;container=1;dropTarget=0;collapsible=0;recursiveResize=0;outlineConnect=0;portConstraint=eastwest;newEdgeStyle={&quot;edgeStyle&quot;:&quot;elbowEdgeStyle&quot;,&quot;elbow&quot;:&quot;vertical&quot;,&quot;curved&quot;:0,&quot;rounded&quot;:0};" vertex="1" parent="1">
          <mxGeometry x="-543" y="-53" width="100" height="500" as="geometry" />
        </mxCell>
        <mxCell id="1Atd8kXOPtwalx7o6Kbn-20" value="" style="html=1;points=[[0,0,0,0,5],[0,1,0,0,-5],[1,0,0,0,5],[1,1,0,0,-5]];perimeter=orthogonalPerimeter;outlineConnect=0;targetShapes=umlLifeline;portConstraint=eastwest;newEdgeStyle={&quot;curved&quot;:0,&quot;rounded&quot;:0};" vertex="1" parent="1Atd8kXOPtwalx7o6Kbn-4">
          <mxGeometry x="44" y="79" width="10" height="45" as="geometry" />
        </mxCell>
        <mxCell id="1Atd8kXOPtwalx7o6Kbn-5" value="Server" style="shape=umlLifeline;perimeter=lifelinePerimeter;whiteSpace=wrap;html=1;container=1;dropTarget=0;collapsible=0;recursiveResize=0;outlineConnect=0;portConstraint=eastwest;newEdgeStyle={&quot;edgeStyle&quot;:&quot;elbowEdgeStyle&quot;,&quot;elbow&quot;:&quot;vertical&quot;,&quot;curved&quot;:0,&quot;rounded&quot;:0};" vertex="1" parent="1">
          <mxGeometry x="-388" y="-53" width="100" height="500" as="geometry" />
        </mxCell>
        <mxCell id="1Atd8kXOPtwalx7o6Kbn-7" value="DB" style="shape=umlLifeline;perimeter=lifelinePerimeter;whiteSpace=wrap;html=1;container=1;dropTarget=0;collapsible=0;recursiveResize=0;outlineConnect=0;portConstraint=eastwest;newEdgeStyle={&quot;edgeStyle&quot;:&quot;elbowEdgeStyle&quot;,&quot;elbow&quot;:&quot;vertical&quot;,&quot;curved&quot;:0,&quot;rounded&quot;:0};" vertex="1" parent="1">
          <mxGeometry x="-250" y="-53" width="100" height="500" as="geometry" />
        </mxCell>
        <mxCell id="1Atd8kXOPtwalx7o6Kbn-12" value="주행 데이터 전송" style="html=1;verticalAlign=bottom;endArrow=block;curved=0;rounded=0;" edge="1" parent="1">
          <mxGeometry width="80" relative="1" as="geometry">
            <mxPoint x="-496" y="96" as="sourcePoint" />
            <mxPoint x="-339" y="96" as="targetPoint" />
          </mxGeometry>
        </mxCell>
        <mxCell id="1Atd8kXOPtwalx7o6Kbn-14" value="분석 및 DB 저장" style="html=1;verticalAlign=bottom;endArrow=block;curved=0;rounded=0;" edge="1" parent="1">
          <mxGeometry width="80" relative="1" as="geometry">
            <mxPoint x="-340" y="131" as="sourcePoint" />
            <mxPoint x="-200" y="131" as="targetPoint" />
          </mxGeometry>
        </mxCell>
        <mxCell id="1Atd8kXOPtwalx7o6Kbn-16" value="저장 데이터 반환" style="html=1;verticalAlign=bottom;endArrow=open;dashed=1;endSize=8;curved=0;rounded=0;" edge="1" parent="1" source="1Atd8kXOPtwalx7o6Kbn-7" target="1Atd8kXOPtwalx7o6Kbn-5">
          <mxGeometry relative="1" as="geometry">
            <mxPoint x="-202" y="171" as="sourcePoint" />
            <mxPoint x="-332" y="171" as="targetPoint" />
            <Array as="points">
              <mxPoint x="-242" y="184" />
            </Array>
          </mxGeometry>
        </mxCell>
        <mxCell id="1Atd8kXOPtwalx7o6Kbn-21" value="속도, RPM, 센서 데이터 수집" style="html=1;verticalAlign=bottom;endArrow=block;curved=0;rounded=0;entryX=0;entryY=0;entryDx=0;entryDy=5;" edge="1" target="1Atd8kXOPtwalx7o6Kbn-20" parent="1" source="1Atd8kXOPtwalx7o6Kbn-3">
          <mxGeometry relative="1" as="geometry">
            <mxPoint x="-569" y="31" as="sourcePoint" />
          </mxGeometry>
        </mxCell>
        <mxCell id="1Atd8kXOPtwalx7o6Kbn-22" value="이상 감지 및 경고" style="html=1;verticalAlign=bottom;endArrow=open;dashed=1;endSize=8;curved=0;rounded=0;exitX=0;exitY=1;exitDx=0;exitDy=-5;" edge="1" source="1Atd8kXOPtwalx7o6Kbn-20" parent="1" target="1Atd8kXOPtwalx7o6Kbn-3">
          <mxGeometry relative="1" as="geometry">
            <mxPoint x="-569" y="101" as="targetPoint" />
          </mxGeometry>
        </mxCell>
        <mxCell id="1Atd8kXOPtwalx7o6Kbn-23" value="운전 습관 분석 결과 및 로그 제공" style="html=1;verticalAlign=bottom;endArrow=open;dashed=1;endSize=8;curved=0;rounded=0;" edge="1" parent="1">
          <mxGeometry relative="1" as="geometry">
            <mxPoint x="-338.5" y="217" as="sourcePoint" />
            <mxPoint x="-685.189655172414" y="217" as="targetPoint" />
          </mxGeometry>
        </mxCell>
      </root>
    </mxGraphModel>
  </diagram>
</mxfile>
